<svg id="_x33__6_" xmlns="http://www.w3.org/2000/svg" width="41.481" height="37.333" viewBox="0 0 41.481 37.333">
  <g id="Group_33609" data-name="Group 33609" transform="translate(0 0)">
    <path id="Path_40045" data-name="Path 40045" d="M39.407,63.784H2.074a2.074,2.074,0,0,0,0,4.148H39.407a2.074,2.074,0,0,0,0-4.148ZM2.074,34.747H39.407a2.074,2.074,0,0,0,0-4.148H2.074a2.074,2.074,0,1,0,0,4.148ZM39.407,47.192H2.074a2.074,2.074,0,0,0,0,4.148H39.407a2.074,2.074,0,0,0,0-4.148Z" transform="translate(0 -30.599)" fill="#9e60dd"/>
  </g>
</svg>
