<svg xmlns="http://www.w3.org/2000/svg" width="117" height="117" viewBox="0 0 117 117">
  <g id="Group_33898" data-name="Group 33898" transform="translate(-671 -3168)">
    <circle id="Ellipse_2181" data-name="Ellipse 2181" cx="58.5" cy="58.5" r="58.5" transform="translate(671 3168)" fill="#f8f8ff"/>
    <g id="Group_33655" data-name="Group 33655" transform="translate(-100 -267)">
      <g id="animation" transform="translate(792 3464)">
        <path id="Path_40108" data-name="Path 40108" d="M207,32.094h3V89.7h-3Z" transform="translate(-145.428 -31.493)" fill="#e9e9ff" stroke="#7c40d5" stroke-width="0.8"/>
        <path id="Path_40109" data-name="Path 40109" d="M39,32.094h3V89.7H39Z" transform="translate(-27.887 -31.493)" fill="#fff" stroke="#7c40d5" stroke-width="0.8"/>
        <g id="Group_33654" data-name="Group 33654" transform="translate(3.454 5.378)">
          <path id="Path_40110" data-name="Path 40110" d="M13.5,48h4.806v4.806H13.5Z" transform="translate(-13.5 -48)" fill="#7c40d5" stroke="#7c40d5" stroke-width="0.8"/>
          <path id="Path_40111" data-name="Path 40111" d="M13.5,96h4.806v4.806H13.5Z" transform="translate(-13.5 -81.583)" fill="#7c40d5" stroke="#7c40d5" stroke-width="0.8"/>
          <path id="Path_40112" data-name="Path 40112" d="M13.5,144h4.806v4.806H13.5Z" transform="translate(-13.5 -115.166)" fill="#7c40d5" stroke="#7c40d5" stroke-width="0.8"/>
          <path id="Path_40113" data-name="Path 40113" d="M13.5,192h4.806v4.806H13.5Z" transform="translate(-13.5 -148.75)" fill="#7c40d5" stroke="#7c40d5" stroke-width="0.8"/>
          <path id="Path_40114" data-name="Path 40114" d="M226.5,48h4.806v4.806H226.5Z" transform="translate(-162.526 -48)" fill="#7c40d5" stroke="#7c40d5" stroke-width="0.8"/>
          <path id="Path_40115" data-name="Path 40115" d="M226.5,96h4.806v4.806H226.5Z" transform="translate(-162.526 -81.583)" fill="#7c40d5" stroke="#7c40d5" stroke-width="0.8"/>
          <path id="Path_40116" data-name="Path 40116" d="M226.5,144h4.806v4.806H226.5Z" transform="translate(-162.526 -115.166)" fill="#7c40d5" stroke="#7c40d5" stroke-width="0.8"/>
          <path id="Path_40117" data-name="Path 40117" d="M226.5,192h4.806v4.806H226.5Z" transform="translate(-162.526 -148.75)" fill="#7c40d5" stroke="#7c40d5" stroke-width="0.8"/>
        </g>
        <path id="Path_40118" data-name="Path 40118" d="M77.087,88.906H2.6a.6.6,0,0,1-.6-.6V30.695a.6.6,0,0,1,.6-.6H77.087a.6.6,0,0,1,.6.6V88.305A.6.6,0,0,1,77.087,88.906ZM3.2,87.7H76.487V31.3H3.2Z" transform="translate(-2 -30.094)" fill="#7c40d5" stroke="#7c40d5" stroke-width="0.8"/>
        <path id="Path_40119" data-name="Path 40119" d="M47.6,45.389a.6.6,0,0,1-.6-.6v-3.6a.6.6,0,1,1,1.2,0v3.6A.6.6,0,0,1,47.6,45.389Z" transform="translate(-33.484 -37.433)" fill="#7c40d5" stroke="#7c40d5" stroke-width="0.8"/>
        <path id="Path_40120" data-name="Path 40120" d="M158.874,89.191a5.1,5.1,0,1,1,5.1-5.1A5.1,5.1,0,0,1,158.874,89.191Zm0-8.992a3.9,3.9,0,1,0,3.9,3.9A3.9,3.9,0,0,0,158.874,80.2Z" transform="translate(-108.191 -64.309)" fill="#7c40d5" stroke="#7c40d5" stroke-width="0.8"/>
        <path id="Path_40121" data-name="Path 40121" d="M73.38,89.191a5.1,5.1,0,1,1,5.1-5.1A5.1,5.1,0,0,1,73.38,89.191Zm0-8.992a3.9,3.9,0,1,0,3.9,3.9A3.9,3.9,0,0,0,73.38,80.2Z" transform="translate(-48.375 -64.309)" fill="#7c40d5" stroke="#7c40d5" stroke-width="0.8"/>
        <path id="Path_40122" data-name="Path 40122" d="M90.217,111.437a16.22,16.22,0,1,1,16.22-16.22,16.238,16.238,0,0,1-16.22,16.22Zm0-31.238a15.018,15.018,0,1,0,15.018,15.018A15.035,15.035,0,0,0,90.217,80.2Z" transform="translate(-52.373 -64.309)" fill="#7c40d5" stroke="#7c40d5" stroke-width="0.8"/>
        <path id="Path_40125" data-name="Path 40125" d="M101.844,116.821a2.11,2.11,0,0,1-2.108-2.108v-1.736a2.108,2.108,0,1,1,4.216,0v1.736A2.111,2.111,0,0,1,101.844,116.821Zm0-4.751a.908.908,0,0,0-.907.907v1.736a.907.907,0,1,0,1.813,0v-1.736A.908.908,0,0,0,101.844,112.07Z" transform="translate(-70.381 -86.608)" fill="#7c40d5" stroke="#7c40d5" stroke-width="0.8"/>
        <path id="Path_40126" data-name="Path 40126" d="M144.334,116.821a2.11,2.11,0,0,1-2.108-2.108v-1.736a2.108,2.108,0,1,1,4.216,0v1.736A2.111,2.111,0,0,1,144.334,116.821Zm0-4.751a.908.908,0,0,0-.907.907v1.736a.907.907,0,0,0,1.814,0v-1.736A.908.908,0,0,0,144.334,112.07Z" transform="translate(-100.109 -86.608)" fill="#7c40d5" stroke="#7c40d5" stroke-width="0.8"/>
        <ellipse id="Ellipse_2189" data-name="Ellipse 2189" cx="15.619" cy="7.809" rx="15.619" ry="7.809" transform="translate(22.225 30.908)" fill="#fbf8ff" stroke="#7c40d5" stroke-width="0.8"/>
        <path id="Path_40127" data-name="Path 40127" d="M90.217,147.82c-9.1,0-16.22-3.694-16.22-8.41S81.122,131,90.217,131s16.22,3.694,16.22,8.41S99.312,147.82,90.217,147.82Zm0-15.619c-8.141,0-15.018,3.3-15.018,7.209s6.877,7.209,15.018,7.209,15.018-3.3,15.018-7.209S98.357,132.2,90.217,132.2Z" transform="translate(-52.373 -100.693)" fill="#7c40d5" stroke="#7c40d5" stroke-width="0.8"/>
        <path id="Path_40130" data-name="Path 40130" d="M119.844,142.789a3.5,3.5,0,0,1-3.5-3.5.6.6,0,0,1,.6-.6h5.8a.6.6,0,0,1,.6.6A3.5,3.5,0,0,1,119.844,142.789Zm-2.22-2.9a2.3,2.3,0,0,0,4.44,0Z" transform="translate(-82 -106.071)" fill="#7c40d5" stroke="#7c40d5" stroke-width="0.8"/>
        <path id="Path_40131" data-name="Path 40131" d="M116.092,161.714a5.118,5.118,0,0,1-5.112-5.112.6.6,0,0,1,.6-.6H120.6a.6.6,0,0,1,.6.6A5.117,5.117,0,0,1,116.092,161.714Zm-3.864-4.511a3.911,3.911,0,0,0,7.729,0Z" transform="translate(-78.248 -118.185)" fill="#7c40d5" stroke="#7c40d5" stroke-width="0.8"/>
        <path id="Path_40132" data-name="Path 40132" d="M126.6,151.844a.6.6,0,0,1-.6-.6v-2.3a.6.6,0,0,1,1.2,0v2.3A.6.6,0,0,1,126.6,151.844Z" transform="translate(-88.757 -112.827)" fill="#7c40d5" stroke="#7c40d5" stroke-width="0.8"/>
      </g>
    </g>
  </g>
</svg>
