<svg xmlns="http://www.w3.org/2000/svg" width="117" height="117" viewBox="0 0 117 117">
  <g id="Group_33896" data-name="Group 33896" transform="translate(-671 -2714)">
    <circle id="Ellipse_2179" data-name="Ellipse 2179" cx="58.5" cy="58.5" r="58.5" transform="translate(671 2714)" fill="#f8f8ff"/>
    <g id="comic" transform="translate(613.094 2574.743)">
      <g id="Group_33631" data-name="Group 33631" transform="translate(82.906 166.256)">
        <g id="Group_33630" data-name="Group 33630" transform="translate(0)">
          <path id="Path_40060" data-name="Path 40060" d="M150.284,196.188a1.55,1.55,0,0,0-1.409-1.388c-6.343-.546-10.1-2.108-11.494-4.775-2.195-4.207,1.132-11.615,6.8-21.443a1.55,1.55,0,0,0-2.439-1.871c-8.84,8.84-17.015,13.121-22.425,11.747-3.23-.821-5.584-3.655-7-8.426a1.55,1.55,0,0,0-3.017.194c-.251,1.562-.472,3.05-.666,4.362-.83,5.6-1.43,9.647-3.094,10.5-1.778.907-6.089-1.129-9.177-2.739a1.55,1.55,0,0,0-1.988,2.261c1.992,2.857,4.562,6.873,3.891,8.751-.629,1.759-4.565,2.872-10.014,4.412-1.277.361-2.723.77-4.24,1.219A1.55,1.55,0,0,0,84.21,202c4.695.756,7.484,2.133,8.528,4.213,1.82,3.624-1.181,9.93-5.619,18.443a1.55,1.55,0,0,0,2.32,1.945c8.126-6.258,14.25-10.2,17.729-9.067,2.229.722,4.018,3.731,5.8,9.756a1.55,1.55,0,0,0,1.486,1.11c.033,0,.067,0,.1,0a1.55,1.55,0,0,0,1.431-1.3c.717-4.456,2.22-7.2,4.594-8.394,4.635-2.327,12.644,1.2,20.61,5.348a1.55,1.55,0,0,0,1.951-2.312c-5.471-7.208-7.563-12.44-6.4-15.992,1.064-3.245,4.9-5.687,12.436-7.919A1.551,1.551,0,0,0,150.284,196.188ZM133.8,204.783c-1.2,3.655-.11,8.129,3.421,13.848-7.5-3.458-13.516-4.963-18.03-2.7a10.429,10.429,0,0,0-4.92,5.666c-1.7-4.069-3.61-6.191-6.147-7.013a7.282,7.282,0,0,0-2.266-.348,14.5,14.5,0,0,0-6.406,1.872,54.549,54.549,0,0,0-6.627,4.123c3.148-6.589,4.631-11.53,2.684-15.409a9.584,9.584,0,0,0-5.239-4.4c6.114-1.738,9.822-2.947,10.92-6.02.651-1.821.254-3.963-1.426-7.066,3.291,1.269,5.467,1.389,7.19.51,2.938-1.5,3.648-5.4,4.6-11.8a11.388,11.388,0,0,0,7,5.418c3.413.867,7.411.143,11.884-2.153a43.5,43.5,0,0,0,6.843-4.464c-3.451,7.078-4.782,12.527-2.65,16.612,1.336,2.56,3.953,4.357,7.94,5.431C137.631,199.026,134.859,201.553,133.8,204.783Z" transform="translate(-82.906 -166.256)" fill="#7c40d5" stroke="#f8f8ff" stroke-width="0.5"/>
        </g>
      </g>
      <g id="Group_33633" data-name="Group 33633" transform="translate(102.012 183.368)">
        <g id="Group_33632" data-name="Group 33632" transform="translate(0 0)">
          <path id="Path_40061" data-name="Path 40061" d="M206.21,267.125c-6.311-4.1-7.491-6.737-4.853-10.847a1.55,1.55,0,0,0-2.119-2.156c-.89.549-3.6,2.221-4.534,1.838s-1.726-3.548-1.983-4.587a1.55,1.55,0,0,0-2.9-.31c-3.061,6.235-5.467,8.642-11.7,11.7a1.55,1.55,0,0,0,.314,2.9c1.295.318,2.082.8,2.342,1.447.749,1.853-1.83,5.952-3.9,9.245l-.011.018a1.55,1.55,0,0,0,1.32,2.367,1.566,1.566,0,0,0,.834-.24c3.293-2.073,7.392-4.652,9.245-3.9.642.26,1.129,1.048,1.447,2.342a1.55,1.55,0,0,0,2.9.314c2.987-6.086,6.94-7.276,12.758-7.276a1.55,1.55,0,0,0,.844-2.85Zm-14.841,6.083a4.662,4.662,0,0,0-1.943-1.486,5.069,5.069,0,0,0-1.92-.358,11.536,11.536,0,0,0-4.964,1.468c1.268-2.532,1.921-4.875,1.109-6.884a4.634,4.634,0,0,0-1.385-1.862,21.361,21.361,0,0,0,8.573-8.355,5.25,5.25,0,0,0,2.693,3.1,4.8,4.8,0,0,0,3.5-.1c-.582,3.42,1.244,6.112,3.985,8.438A13.4,13.4,0,0,0,191.369,273.208Z" transform="translate(-176.629 -250.196)" fill="#7c40d5" stroke="#f8f8ff" stroke-width="0.5"/>
        </g>
      </g>
    </g>
  </g>
</svg>
