<svg xmlns="http://www.w3.org/2000/svg" width="117" height="117" viewBox="0 0 117 117">
  <g id="Group_33903" data-name="Group 33903" transform="translate(-1144 -2714)">
    <circle id="Ellipse_2179" data-name="Ellipse 2179" cx="58.5" cy="58.5" r="58.5" transform="translate(1144 2714)" fill="#f8f8ff"/>
    <g id="cinema" transform="translate(1169.005 2738.584)">
      <path id="Path_40065" data-name="Path 40065" d="M62.779,2.922,61.7,2.653a75.47,75.47,0,0,0-36.474,0l-1.08.269a5.6,5.6,0,0,0-4.251,5.444V16.18A75.526,75.526,0,0,0,3.863,22.79l-.98.54A5.592,5.592,0,0,0,.19,29.684L3.456,41.9a34.812,34.812,0,0,0,21.711,23.68l3.367,1.235A10.152,10.152,0,0,0,39.73,63.8l2.3-2.746a34.159,34.159,0,0,0,5.214-8.445,10.009,10.009,0,0,0,2.01-1.057L52.189,49.5A34.824,34.824,0,0,0,67.029,21V8.366a5.6,5.6,0,0,0-4.25-5.444ZM40.311,59.616l-2.3,2.748A7.9,7.9,0,0,1,29.3,64.7l-3.367-1.234A32.57,32.57,0,0,1,5.624,41.315L2.357,29.1A3.351,3.351,0,0,1,3.971,25.3l.979-.54a73.3,73.3,0,0,1,14.943-6.24V21A34.817,34.817,0,0,0,31.831,47.216,21.213,21.213,0,0,1,25.649,48.7l-8.44.684a1.122,1.122,0,0,0-.372,2.143l11.188,5.05A5.611,5.611,0,0,0,34.9,54.74l2.448-3.406.32.224a10.1,10.1,0,0,0,5.792,1.818c.336,0,.662-.043.993-.075a32.035,32.035,0,0,1-4.143,6.315Zm-6.5-10.8c.306.225.6.467.92.687l.777.544-2.433,3.385a3.367,3.367,0,0,1-4.125,1.1l-7.224-3.255,4.106-.336a23.5,23.5,0,0,0,7.979-2.125ZM64.785,21A32.575,32.575,0,0,1,50.9,47.663l-2.936,2.055a7.882,7.882,0,0,1-9.012,0L36.02,47.663A32.574,32.574,0,0,1,22.138,21V8.366A3.366,3.366,0,0,1,24.687,5.1l1.081-.27a73.2,73.2,0,0,1,35.386,0l1.081.27a3.367,3.367,0,0,1,2.55,3.266Zm0,0" transform="translate(0)" fill="#7c40d5"/>
      <path id="Path_40066" data-name="Path 40066" d="M211.4,123.6l1.531-1.643a8.989,8.989,0,0,0-12.7,0l-.056.056,1.643,1.531a6.733,6.733,0,0,1,9.58.056Zm0,0" transform="translate(-172.098 -102.234)" fill="#7c40d5"/>
      <path id="Path_40067" data-name="Path 40067" d="M328.231,121.958l-.056.056,1.643,1.531a6.733,6.733,0,0,1,9.58.056l1.531-1.643A8.989,8.989,0,0,0,328.231,121.958Zm0,0" transform="translate(-282.141 -102.234)" fill="#7c40d5"/>
      <path id="Path_40068" data-name="Path 40068" d="M76.864,250.528a6.734,6.734,0,0,1,5.186.716l1.046-1.988a8.979,8.979,0,0,0-12.265,3.285l-.039.068.97.561,1.01.492a6.684,6.684,0,0,1,4.091-3.135Zm0,0" transform="translate(-60.865 -212.896)" fill="#7c40d5"/>
      <path id="Path_40069" data-name="Path 40069" d="M239.435,224.105l-8.328,1.515a21.258,21.258,0,0,1-7.631,0l-8.33-1.515a1.122,1.122,0,0,0-.911,1.973l9.5,7.773a5.628,5.628,0,0,0,7.106,0l9.5-7.775a1.122,1.122,0,0,0-.911-1.973Zm-10.012,8.011a3.374,3.374,0,0,1-4.264,0l-6.144-5.026,4.059.738a23.436,23.436,0,0,0,8.431,0l4.06-.738Zm0,0" transform="translate(-183.83 -192.291)" fill="#7c40d5"/>
    </g>
  </g>
</svg>
