<svg xmlns="http://www.w3.org/2000/svg" width="117" height="117" viewBox="0 0 117 117">
  <g id="Group_33907" data-name="Group 33907" transform="translate(-1371 -2714)">
    <circle id="Ellipse_2179" data-name="Ellipse 2179" cx="58.5" cy="58.5" r="58.5" transform="translate(1371 2714)" fill="#f8f8ff"/>
    <g id="crafts" transform="translate(1401.583 2739.001)">
      <path id="Path_40070" data-name="Path 40070" d="M181.749,32.151a6.651,6.651,0,0,0-12.289-.142,6.722,6.722,0,0,0-.432,1.436l-4.53-5.174a1.087,1.087,0,0,0-.39-.284l-.574-.245-1.658-16.556a7.157,7.157,0,0,0-7.835-6.409,1.086,1.086,0,0,0-.973,1.19l1.81,18.072-15.42-6.6a1.085,1.085,0,0,0-1.426.572,7.157,7.157,0,0,0,3.764,9.4l13.968,5.974a1.085,1.085,0,0,0,.351.081l3.357,5.51a6.748,6.748,0,0,0-1.5-.021,6.652,6.652,0,0,0,.65,13.271c.224,0,.449-.012.675-.034a6.653,6.653,0,0,0,5.955-7.281c-.013-.127-.03-.254-.05-.38a1.024,1.024,0,0,0,0-.124l-.731-7.3,8.02,3.431a1.129,1.129,0,0,0,.158.049c.1.05.2.1.308.15a6.652,6.652,0,0,0,8.79-8.59Zm-41.762-9.466a4.949,4.949,0,0,1-.275-2.769l15.415,6.594.443,4.427-12.917-5.525a4.957,4.957,0,0,1-2.666-2.728ZM155.353,6.95a4.99,4.99,0,0,1,4.362,4.453l2.851,28.469-4.686-7.691Zm6.75,41.458a4.48,4.48,0,1,1,.989-3.281,4.446,4.446,0,0,1-.989,3.281Zm1.741-17.586,5.116,5.842-4.685-2c-.016-.007-.032-.009-.048-.015Zm15.849,5.563a4.478,4.478,0,1,1,.039-3.427,4.485,4.485,0,0,1-.039,3.427Zm0,0" transform="translate(-115.219 -3.987)" fill="#7c40d5"/>
      <path id="Path_40071" data-name="Path 40071" d="M359.156,169.915A3.634,3.634,0,1,0,356.3,176.6h0a3.634,3.634,0,1,0,2.857-6.683Zm-.087,3.916a1.46,1.46,0,0,1-2.7-.031,1.461,1.461,0,1,1,2.7.031Zm0,0" transform="translate(-297.37 -142.618)" fill="#7c40d5"/>
      <path id="Path_40072" data-name="Path 40072" d="M253.633,239.224a3.634,3.634,0,1,0-2.306,6.448,3.672,3.672,0,0,0,.368-.019,3.634,3.634,0,0,0,1.938-6.429Zm-1.17,3.738a1.46,1.46,0,1,1-1.131-2.385,1.461,1.461,0,0,1,1.131,2.385Zm0,0" transform="translate(-207.914 -200.451)" fill="#7c40d5"/>
      <path id="Path_40073" data-name="Path 40073" d="M32.31,130.28a7.944,7.944,0,0,0-3.963-6.12v-5.4a1.086,1.086,0,0,0-1.086-1.087H27c-.323-4.773-2.694-10.868-6.263-10.868s-5.94,6.095-6.264,10.868h-.257a1.086,1.086,0,0,0-1.086,1.087v5.4a7.944,7.944,0,0,0-3.963,6.12L7.38,148.032a7.97,7.97,0,0,0,7.929,8.768H26.171a7.969,7.969,0,0,0,7.929-8.768Zm-11.57-21.3c1.6,0,3.774,4.219,4.091,8.694H16.65C16.966,113.2,19.142,108.982,20.74,108.982ZM15.306,123.11v-3.26H26.174v3.26Zm15.163,29.608a5.8,5.8,0,0,1-4.3,1.908H15.309a5.8,5.8,0,0,1-5.766-6.377L11.332,130.5a5.779,5.779,0,0,1,5.767-5.214h7.283a5.779,5.779,0,0,1,5.767,5.214l1.789,17.752a5.8,5.8,0,0,1-1.468,4.469Zm0,0" transform="translate(-5.821 -89.806)" fill="#7c40d5"/>
      <path id="Path_40074" data-name="Path 40074" d="M3.339,139.827a1.088,1.088,0,0,0,1.032-1.43,17.268,17.268,0,0,1-.624-2.478,1.087,1.087,0,0,0-2.142.374,19.581,19.581,0,0,0,.7,2.789,1.088,1.088,0,0,0,1.032.745Zm0,0" transform="translate(-0.985 -113.526)" fill="#7c40d5"/>
      <path id="Path_40075" data-name="Path 40075" d="M71.458,3.509a1.087,1.087,0,0,0,.428-.088,17.216,17.216,0,0,1,4.477-1.236A1.087,1.087,0,0,0,76.071.031,19.448,19.448,0,0,0,71.03,1.422a1.088,1.088,0,0,0,.428,2.087Zm0,0" transform="translate(-58.817 -0.018)" fill="#7c40d5"/>
      <path id="Path_40076" data-name="Path 40076" d="M22.676,29.692a1.088,1.088,0,0,0,1.519-.234,17.522,17.522,0,0,1,3.222-3.352,1.086,1.086,0,1,0-1.352-1.7,19.654,19.654,0,0,0-3.623,3.767,1.088,1.088,0,0,0,.234,1.52Zm0,0" transform="translate(-18.342 -20.321)" fill="#7c40d5"/>
      <path id="Path_40077" data-name="Path 40077" d="M132.239,2.164a17.37,17.37,0,0,1,4.485,1.221,1.087,1.087,0,1,0,.847-2A19.53,19.53,0,0,0,132.526.009a1.087,1.087,0,0,0-.287,2.155Zm0,0" transform="translate(-110.043)" fill="#7c40d5"/>
      <path id="Path_40078" data-name="Path 40078" d="M1.4,80.774c.035,0,.07,0,.1,0a1.087,1.087,0,0,0,1.081-.984,17.417,17.417,0,0,1,1.052-4.526A1.086,1.086,0,1,0,1.606,74.5,19.477,19.477,0,0,0,.422,79.589,1.086,1.086,0,0,0,1.4,80.774Zm0,0" transform="translate(0 -62.049)" fill="#7c40d5"/>
      <path id="Path_40079" data-name="Path 40079" d="M188.419,25.987a17.486,17.486,0,0,1,1.879,1.731,1.087,1.087,0,1,0,1.586-1.486,19.571,19.571,0,0,0-2.115-1.946,1.086,1.086,0,1,0-1.35,1.7Zm0,0" transform="translate(-157.727 -20.221)" fill="#7c40d5"/>
      <path id="Path_40080" data-name="Path 40080" d="M60.7,263.82H49.833a1.086,1.086,0,0,0-1.085,1.018l-.342,5.434a1.087,1.087,0,0,0,1.085,1.155H61.043a1.087,1.087,0,0,0,1.085-1.155l-.342-5.434A1.086,1.086,0,0,0,60.7,263.82Zm-10.052,5.434.206-3.26H59.68l.206,3.26Zm0,0" transform="translate(-40.348 -221.821)" fill="#7c40d5"/>
    </g>
  </g>
</svg>
