<svg xmlns="http://www.w3.org/2000/svg" width="117" height="117" viewBox="0 0 117 117">
  <g id="Group_33906" data-name="Group 33906" transform="translate(-1377 -2941)">
    <circle id="Ellipse_2179" data-name="Ellipse 2179" cx="58.5" cy="58.5" r="58.5" transform="translate(1377 2941)" fill="#f8f8ff"/>
    <g id="party-people" transform="translate(1398.436 2962.954)">
      <path id="Path_40091" data-name="Path 40091" d="M40.847,17.185a6.092,6.092,0,1,1,6.1-6.082A6.092,6.092,0,0,1,40.847,17.185ZM40.847,7a4.092,4.092,0,1,0,4.1,4.1,4.092,4.092,0,0,0-4.1-4.1Z" fill="#7c40d5"/>
      <path id="Path_40092" data-name="Path 40092" d="M36.8,72a4.763,4.763,0,0,1-4.723-4.252l-2.544-23.66A12.213,12.213,0,0,1,31.071,36.7l2.564-4.507a2.737,2.737,0,0,0-.177-2.974L26.653,19.99A8.112,8.112,0,0,1,25.5,17.772l-3.489-10.3a4.142,4.142,0,1,1,7.876-2.565l2.86,9.146a7.414,7.414,0,0,0,1.041,2.093l2.287,3.209a1.328,1.328,0,0,0,1.08.557l3.693,0h3.018a1.614,1.614,0,0,0,1.276-.62L56.994,4.193a4,4,0,0,1,6.312,4.912L49.822,26.59a4.355,4.355,0,0,0-.831,1.858L47.25,37.816a1.6,1.6,0,0,0,.232,1.171l5.767,8.85a7.427,7.427,0,0,1,1.167,4.749l-1.432,14.99A4.69,4.69,0,1,1,43.667,66.5l1.761-13.1a1.436,1.436,0,0,0-.239-1.006l-4.657-6.789a.923.923,0,0,0-1.677.642L41.53,66.619A4.762,4.762,0,0,1,36.8,72ZM25.934,4A2.143,2.143,0,0,0,23.9,6.83l3.489,10.3a6.135,6.135,0,0,0,.872,1.671l6.807,9.225a4.739,4.739,0,0,1,.306,5.15L32.81,37.685a10.229,10.229,0,0,0-1.287,6.19l2.544,23.66a2.76,2.76,0,0,0,5.481-.655L36.872,46.509a2.922,2.922,0,0,1,5.308-2.034l4.658,6.789a3.433,3.433,0,0,1,.572,2.4l-1.761,13.1a2.691,2.691,0,1,0,5.345.615L52.426,52.4a5.425,5.425,0,0,0-.853-3.466l-5.767-8.851a3.587,3.587,0,0,1-.523-2.629l1.741-9.368a6.373,6.373,0,0,1,1.214-2.714L61.722,7.884a2,2,0,0,0-3.156-2.456L46.712,20.521a3.6,3.6,0,0,1-2.849,1.385l-6.709,0a3.333,3.333,0,0,1-2.709-1.4L32.158,17.3a9.385,9.385,0,0,1-1.32-2.657L27.974,5.5A2.139,2.139,0,0,0,25.934,4Z" fill="#7c40d5"/>
      <path id="Path_40093" data-name="Path 40093" d="M58.144,44.106a2.9,2.9,0,0,1-2.082-.817c-1.3-1.3-1.05-3.6.579-5.229s3.925-1.883,5.229-.58a3.013,3.013,0,0,1,.773,2.64A4.97,4.97,0,0,1,58.7,44.063a3.574,3.574,0,0,1-.556.043Zm1.63-5.454a1.621,1.621,0,0,0-.249.02,2.969,2.969,0,0,0-2.271,2.271,1.1,1.1,0,0,0,.223.931,1.077,1.077,0,0,0,.917.211,2.983,2.983,0,0,0,2.274-2.274,1.079,1.079,0,0,0-.212-.917.947.947,0,0,0-.683-.241Z" fill="#7c40d5"/>
      <path id="Path_40094" data-name="Path 40094" d="M11.473,42.617a2.883,2.883,0,0,1-2.078-.823c-1.3-1.3-1.049-3.6.579-5.229s3.926-1.883,5.229-.58,1.035,3.587-.593,5.215a4.541,4.541,0,0,1-3.137,1.417Zm1.642-5.459a2.624,2.624,0,0,0-1.727.821c-.793.794-1.063,1.916-.579,2.4.425.425,1.511.285,2.388-.593s1.017-1.962.593-2.387a.929.929,0,0,0-.676-.241Z" fill="#7c40d5"/>
      <path id="Path_40095" data-name="Path 40095" d="M21.249,39.217a2.883,2.883,0,0,1-2.078-.823c-1.3-1.3-1.049-3.6.579-5.229s3.924-1.883,5.229-.58,1.036,3.586-.592,5.215a4.543,4.543,0,0,1-3.138,1.417Zm1.634-5.46a1.621,1.621,0,0,0-.249.02,2.766,2.766,0,0,0-1.47.8c-.793.793-1.063,1.916-.579,2.4.425.424,1.509.286,2.388-.593s1.017-1.963.592-2.387a.947.947,0,0,0-.682-.24Z" fill="#7c40d5"/>
      <path id="Path_40096" data-name="Path 40096" d="M61.162,39.188a1,1,0,0,1-.929-.629L55.3,26.25a1,1,0,0,1,.813-1.365,8.89,8.89,0,0,1,9.261,6.169,1,1,0,0,1-1.887.664,6.8,6.8,0,0,0-5.769-4.81l4.369,10.908a1,1,0,0,1-.929,1.372Z" fill="#7c40d5"/>
      <path id="Path_40097" data-name="Path 40097" d="M14.9,38.339a1,1,0,0,1-.934-.643L10.113,27.628a1.781,1.781,0,0,1,1.016-2.291l8.108-3.21a1.788,1.788,0,0,1,2.334,1.039l4.067,10.5a1,1,0,1,1-1.865.723l-4-10.323L12.06,27.12l3.775,9.861a1,1,0,0,1-.934,1.358Z" fill="#7c40d5"/>
      <path id="Path_40098" data-name="Path 40098" d="M12.3,31.692a1,1,0,0,1-.38-1.926l9.545-3.917a1,1,0,1,1,.76,1.851L12.68,31.617A1,1,0,0,1,12.3,31.692Z" fill="#7c40d5"/>
    </g>
  </g>
</svg>
