<svg xmlns="http://www.w3.org/2000/svg" width="117" height="117" viewBox="0 0 117 117">
  <g id="Group_33897" data-name="Group 33897" transform="translate(-672 -2941)">
    <circle id="Ellipse_2180" data-name="Ellipse 2180" cx="58.5" cy="58.5" r="58.5" transform="translate(672 2941)" fill="#f8f8ff"/>
    <g id="Icons_copy" data-name="Icons copy" transform="translate(676 2952)">
      <path id="Path_40082" data-name="Path 40082" d="M242.18,153.88h-3.362l-1.1-3.854a4.148,4.148,0,0,0-4.63-2.954l-15.077,2.381a3.268,3.268,0,0,0-2.531,4.428h-2.3a1.036,1.036,0,0,0-.575.174l-2.846,1.9H208v2.072h1.758l2.846,1.9a1.036,1.036,0,0,0,.575.174h4.75l2.518,2.518a5.6,5.6,0,0,0,3.519,4.777l1.643.657v8.377l-1.962,3.924a1.033,1.033,0,0,0-.107.463h0V192.2h2.072V181.846h13.465V192.2h2.072V180.81h0a1.033,1.033,0,0,0-.107-.463l-1.962-3.924V160.095h3.107a3.107,3.107,0,0,0,0-6.215Zm-24.858-1.2a1.193,1.193,0,0,1,1.011-1.184l15.077-2.381a2.073,2.073,0,0,1,2.315,1.477l.939,3.285h-5.448l1.339-1.339-1.465-1.465-2.8,2.8H218.52A1.2,1.2,0,0,1,217.322,152.682Zm-5.383,4.306,1.554-1.036h3.01a3.236,3.236,0,0,0-.087,2.072h-2.924Zm14.309,22.787,1.036-2.072H237.4l1.036,2.072ZM237,175.631H227.68v-8.286a1.036,1.036,0,0,0-.651-.962l-2.294-.917a3.537,3.537,0,0,1-2.234-3.3,1.036,1.036,0,0,0-.3-.732l-3.5-3.5a1.161,1.161,0,0,1,.821-1.983h.391a1.168,1.168,0,0,1,.519.123l7.672,3.836,2.988,2.988,1.465-1.465-1.339-1.339H237Zm-8.042-17.608-4.143-2.072h14.256v2.072Zm13.22,0h-1.036v-2.072h1.036a1.036,1.036,0,0,1,0,2.072Z" transform="translate(-160.177 -114.058)" fill="#7c40d5"/>
      <path id="Path_40083" data-name="Path 40083" d="M24,49.036V101.86a1.036,1.036,0,0,0,1.036,1.036H61.288v-2.072H26.072V50.072h46.61v8.286h2.072V49.036A1.036,1.036,0,0,0,73.717,48H25.036A1.036,1.036,0,0,0,24,49.036Z" transform="translate(0 -27.857)" fill="#7c40d5"/>
      <path id="Path_40084" data-name="Path 40084" d="M84.053,153.139a15.523,15.523,0,0,1,8.968,1.02l.822-1.9a17.605,17.605,0,1,0,9.684,21.828l-1.962-.665a15.54,15.54,0,0,1-10.67,10l7.655-7.655L97.086,174.3l-9.639,9.64a15.67,15.67,0,0,1-2.787-.142l6.819-6.819-1.465-1.464-7.749,7.749a15.444,15.444,0,0,1-2.108-.821L87,175.6l-1.465-1.465-7.247,7.247a15.486,15.486,0,0,1-1.661-1.269l5.889-5.889-1.465-1.465-5.89,5.89a15.607,15.607,0,0,1-1.271-1.659l6.732-6.731L79.155,168.8l-6.328,6.326A15.337,15.337,0,0,1,72,173.018l6.721-6.722-1.465-1.465-5.79,5.791a15.759,15.759,0,0,1-.154-2.2c0-.2,0-.392.012-.588l6.54-6.54L76.4,159.831l-4.561,4.561A15.561,15.561,0,0,1,84.053,153.139Z" transform="translate(-39.395 -117.359)" fill="#7c40d5"/>
      <path id="Path_40085" data-name="Path 40085" d="M105.375,95.7c1.547,0,2.236-1.378,2.739-2.385.262-.523.62-1.24.886-1.24s.625.717.886,1.24c.5,1.007,1.193,2.385,2.739,2.385s2.236-1.378,2.739-2.385c.262-.523.62-1.24.887-1.24V90c-1.547,0-2.236,1.378-2.739,2.385-.262.523-.62,1.24-.887,1.24s-.625-.717-.887-1.24C111.236,91.378,110.547,90,109,90s-2.236,1.378-2.739,2.385c-.262.523-.62,1.24-.886,1.24s-.624-.717-.886-1.24c-.5-1.007-1.193-2.385-2.739-2.385s-2.236,1.378-2.739,2.385c-.262.523-.62,1.24-.886,1.24s-.624-.717-.886-1.24C96.735,91.379,96.045,90,94.5,90s-2.235,1.378-2.739,2.385c-.262.523-.62,1.24-.886,1.24s-.624-.717-.886-1.24C89.485,91.379,88.8,90,87.249,90s-2.235,1.379-2.738,2.385c-.262.523-.62,1.24-.886,1.24s-.624-.717-.886-1.24C82.236,91.379,81.546,90,80,90v2.072c.266,0,.624.717.886,1.24.5,1.007,1.193,2.385,2.739,2.385s2.236-1.379,2.739-2.385c.262-.523.62-1.24.886-1.24s.624.717.886,1.24c.5,1.007,1.192,2.385,2.739,2.385s2.236-1.379,2.739-2.385c.262-.523.62-1.24.886-1.24s.625.717.886,1.24c.5,1.007,1.193,2.385,2.739,2.385s2.236-1.378,2.739-2.385c.262-.523.62-1.24.886-1.24s.625.717.886,1.24C103.139,94.318,103.828,95.7,105.375,95.7Z" transform="translate(-48.75 -64.419)" fill="#7c40d5"/>
      <rect id="Rectangle_3983" data-name="Rectangle 3983" width="29" height="2" transform="translate(32.533 16)" fill="#7c40d5"/>
      <rect id="Rectangle_3984" data-name="Rectangle 3984" width="3" height="2" transform="translate(63.533 16)" fill="#7c40d5"/>
    </g>
  </g>
</svg>
