<svg xmlns="http://www.w3.org/2000/svg" width="117" height="117" viewBox="0 0 117 117">
  <g id="Group_33904" data-name="Group 33904" transform="translate(-1144 -3168)">
    <circle id="Ellipse_2179" data-name="Ellipse 2179" cx="58.5" cy="58.5" r="58.5" transform="translate(1144 3168)" fill="#f8f8ff"/>
    <g id="book" transform="translate(1167 3142.697)">
      <g id="Group_33656" data-name="Group 33656" transform="translate(0 58.303)">
        <path id="Path_40133" data-name="Path 40133" d="M70.33,62.585H65.6V60.973a1.39,1.39,0,0,0-1-1.39A39.159,39.159,0,0,0,54.579,58.3c-5.561,0-13.137,1.251-18.74,6.951C30.278,59.5,22.646,58.3,17.1,58.3A39.159,39.159,0,0,0,7.076,59.582a1.39,1.39,0,0,0-1,1.39v1.6H1.39A1.39,1.39,0,0,0,0,63.962v44.4a1.387,1.387,0,0,0,2.071,1.209c.139-.07,14.041-7.674,33.448-2.78h.334a1.392,1.392,0,0,0,.334,0c19.463-4.935,33.365,2.655,33.448,2.78a1.39,1.39,0,0,0,2.085-1.2v-44.4A1.39,1.39,0,0,0,70.33,62.585ZM2.78,106.154V65.366H6.1v34.866a1.39,1.39,0,0,0,1.6,1.39,60.838,60.838,0,0,1,8.689-.7,36.061,36.061,0,0,1,11.872,1.793A51.107,51.107,0,0,0,2.78,106.154ZM16.39,98.16a61.167,61.167,0,0,0-7.563.487V62.071a38.342,38.342,0,0,1,8.244-.918c5.2,0,12.373,1.2,17.35,6.812l.042,34.63C31.571,100.7,25.927,98.16,16.39,98.16ZM37.243,67.965c4.977-5.561,12.15-6.812,17.35-6.812a38.51,38.51,0,0,1,8.244.918V98.647a61.151,61.151,0,0,0-7.521-.5c-9.481,0-15.139,2.544-18.072,4.435Zm31.682,38.189a51.117,51.117,0,0,0-25.538-3.434,36.147,36.147,0,0,1,11.928-1.793,60.819,60.819,0,0,1,8.744.681,1.39,1.39,0,0,0,1.6-1.39V65.366h3.323Z" transform="translate(0 -58.303)" fill="#7c40d5" stroke="#f8f8ff" stroke-width="0.5"/>
      </g>
    </g>
  </g>
</svg>
