<svg xmlns="http://www.w3.org/2000/svg" width="117" height="117" viewBox="0 0 117 117">
  <g id="Group_33899" data-name="Group 33899" transform="translate(-943 -2941)">
    <circle id="Ellipse_2179" data-name="Ellipse 2179" cx="58.5" cy="58.5" r="58.5" transform="translate(943 2941)" fill="#f8f8ff"/>
    <g id="console" transform="translate(960 2916.891)">
      <g id="Group_33643" data-name="Group 33643" transform="translate(0 55.109)">
        <g id="Group_33642" data-name="Group 33642" transform="translate(0 0)">
          <path id="Path_40086" data-name="Path 40086" d="M83.255,92.946A77.756,77.756,0,0,0,80.973,77.9,57.741,57.741,0,0,0,76.3,65.244c-7.263-12.762-15.148-10.79-24.59-8.3a67.582,67.582,0,0,1-9.545,1.868H41.131a67.583,67.583,0,0,1-9.545-1.868c-9.442-2.386-17.327-4.461-24.59,8.4A52.893,52.893,0,0,0,2.328,78.006,77.756,77.756,0,0,0,.045,93.05c-.208,5.291.311,9.13,1.453,11.828a7.863,7.863,0,0,0,4.98,4.669,10.144,10.144,0,0,0,6.64-.726c4.046-1.66,8.715-5.188,13.28-9.442,3.216-3.113,9.234-4.669,15.252-4.669S53.686,96.266,56.9,99.379c4.565,4.254,9.234,7.781,13.28,9.442a10.854,10.854,0,0,0,6.64.726,7.753,7.753,0,0,0,4.98-4.773C82.944,102.18,83.463,98.341,83.255,92.946Zm-4.98,10.375a4.114,4.114,0,0,1-2.49,2.594,7.164,7.164,0,0,1-4.254-.519c-3.631-1.453-7.885-4.669-12.035-8.612C55.553,92.842,48.6,90.871,41.65,90.871s-13.9,1.971-17.949,5.706c-4.254,3.943-8.508,7.263-12.035,8.612-1.66.623-3.113.934-4.254.519a4.114,4.114,0,0,1-2.49-2.594c-.83-1.971-1.245-5.188-1.038-9.96A71.567,71.567,0,0,1,6.063,78.836,49.507,49.507,0,0,1,10.42,67.112C16.127,56.84,22.767,58.5,30.652,60.575A60.862,60.862,0,0,0,40.82,62.546h1.556a60.109,60.109,0,0,0,10.272-1.971C60.533,58.6,67.173,56.84,72.88,67.112a47.841,47.841,0,0,1,4.358,11.724,78.529,78.529,0,0,1,2.179,14.318C79.624,97.926,79.209,101.143,78.275,103.321Z" transform="translate(0 -55.109)" fill="#7c40d5" stroke="#f8f8ff" stroke-width="1.2"/>
        </g>
      </g>
      <g id="Group_33645" data-name="Group 33645" transform="translate(10.732 65.451)">
        <g id="Group_33644" data-name="Group 33644" transform="translate(0 0)">
          <path id="Path_40087" data-name="Path 40087" d="M62.746,102.244a6.3,6.3,0,0,0-3.735-1.764,5.9,5.9,0,0,0-1.66-3.631l-.1-.1a5.876,5.876,0,0,0-4.254-1.764,6.126,6.126,0,0,0-4.254,1.764,6.031,6.031,0,0,0-1.764,3.735,6.181,6.181,0,0,0-3.735,1.66l-.1.1a5.876,5.876,0,0,0-1.764,4.254,6.126,6.126,0,0,0,1.764,4.254,5.784,5.784,0,0,0,3.839,1.764,5.535,5.535,0,0,0,1.764,3.735,5.876,5.876,0,0,0,4.254,1.764,6.126,6.126,0,0,0,4.254-1.764,6.3,6.3,0,0,0,1.764-3.735,5.535,5.535,0,0,0,3.735-1.764A5.876,5.876,0,0,0,64.51,106.5,6.126,6.126,0,0,0,62.746,102.244Zm-2.594,5.81a2.112,2.112,0,0,1-1.556.623H57.143a1.97,1.97,0,0,0-1.971,1.971V112a2.179,2.179,0,1,1-4.358,0v-1.453a1.97,1.97,0,0,0-1.971-1.971H47.391a2.128,2.128,0,0,1-1.556-3.631l.1-.1a2.479,2.479,0,0,1,1.453-.519h1.453a1.97,1.97,0,0,0,1.971-1.971v-1.453a2.2,2.2,0,0,1,3.735-1.556l.1.1a2.479,2.479,0,0,1,.519,1.453v1.453a1.97,1.97,0,0,0,1.971,1.971H58.6a2.2,2.2,0,0,1,1.556,3.735Z" transform="translate(-41.373 -94.981)" fill="#7c40d5" stroke="#f8f8ff" stroke-width="1.2"/>
        </g>
      </g>
      <g id="Group_33647" data-name="Group 33647" transform="translate(56.072 65.97)">
        <g id="Group_33646" data-name="Group 33646" transform="translate(0 0)">
          <circle id="Ellipse_2182" data-name="Ellipse 2182" cx="3.631" cy="3.631" r="3.631" fill="#7c40d5" stroke="#f8f8ff" stroke-width="1.2"/>
        </g>
      </g>
      <g id="Group_33649" data-name="Group 33649" transform="translate(56.072 80.703)">
        <g id="Group_33648" data-name="Group 33648">
          <circle id="Ellipse_2183" data-name="Ellipse 2183" cx="3.631" cy="3.631" r="3.631" fill="#7c40d5" stroke="#f8f8ff" stroke-width="1.2"/>
        </g>
      </g>
      <g id="Group_33651" data-name="Group 33651" transform="translate(48.705 73.337)">
        <g id="Group_33650" data-name="Group 33650" transform="translate(0 0)">
          <circle id="Ellipse_2184" data-name="Ellipse 2184" cx="3.631" cy="3.631" r="3.631" fill="#7c40d5" stroke="#f8f8ff" stroke-width="1.2"/>
        </g>
      </g>
      <g id="Group_33653" data-name="Group 33653" transform="translate(63.438 73.337)">
        <g id="Group_33652" data-name="Group 33652" transform="translate(0 0)">
          <circle id="Ellipse_2185" data-name="Ellipse 2185" cx="3.631" cy="3.631" r="3.631" fill="#7c40d5" stroke="#f8f8ff" stroke-width="1.2"/>
        </g>
      </g>
    </g>
  </g>
</svg>
