<svg xmlns="http://www.w3.org/2000/svg" width="117" height="117" viewBox="0 0 117 117">
  <g id="Group_33901" data-name="Group 33901" transform="translate(-943 -3168)">
    <circle id="Ellipse_2179" data-name="Ellipse 2179" cx="58.5" cy="58.5" r="58.5" transform="translate(943 3168)" fill="#f8f8ff"/>
    <g id="photo" transform="translate(960 3195)">
      <path id="Path_31756" data-name="Path 31756" d="M11,69.228H72.657a10.971,10.971,0,0,0,11-10.911V25.991A10.968,10.968,0,0,0,72.681,15.08l.085,0v-1.7a1.488,1.488,0,0,0-1.479-1.689H65.364a1.691,1.691,0,0,0-1.692,1.692v1.692H61.483A10.985,10.985,0,0,0,50.659,6.052H33a10.986,10.986,0,0,0-10.823,9.026H11A10.969,10.969,0,0,0,0,25.991V58.317A10.97,10.97,0,0,0,11,69.228ZM3.636,25.991A7.327,7.327,0,0,1,11,18.716H25.635l.283-3.638A7.34,7.34,0,0,1,33,9.69H50.659a7.338,7.338,0,0,1,7.082,5.388l.283,3.638H72.657a7.327,7.327,0,0,1,7.364,7.275V58.317a7.328,7.328,0,0,1-7.364,7.275H11a7.329,7.329,0,0,1-7.363-7.275V25.991ZM30.862,17.9h21.68a1.374,1.374,0,0,0,0-2.748H30.862a1.374,1.374,0,1,0,0,2.748ZM41.831,62.445A20.529,20.529,0,1,0,21.3,41.916,20.553,20.553,0,0,0,41.831,62.445Zm0-37.622A17.094,17.094,0,1,1,24.736,41.918,17.112,17.112,0,0,1,41.831,24.823ZM31.011,43.062A12.357,12.357,0,0,1,43.355,30.717a1.146,1.146,0,0,0,0-2.291A14.652,14.652,0,0,0,28.721,43.06a1.145,1.145,0,0,0,2.29,0Z" transform="translate(0 -6.052)" fill="#7c40d5" stroke="#fff" stroke-width="1"/>
    </g>
  </g>
</svg>
