<svg xmlns="http://www.w3.org/2000/svg" width="117" height="117" viewBox="0 0 117 117">
  <g id="Group_33900" data-name="Group 33900" transform="translate(-943 -2714)">
    <circle id="Ellipse_2179" data-name="Ellipse 2179" cx="58.5" cy="58.5" r="58.5" transform="translate(943 2714)" fill="#f8f8ff"/>
    <g id="podcast" transform="translate(945.802 2718.554)">
      <path id="Path_40062" data-name="Path 40062" d="M70.4,61.019a1.31,1.31,0,0,0,1.831-.276,17.58,17.58,0,1,0-28.312,0,1.309,1.309,0,1,0,2.106-1.554,14.962,14.962,0,1,1,24.1,0,1.31,1.31,0,0,0,.277,1.83Z" transform="translate(-2.596 -2.595)" fill="#7c40d5"/>
      <path id="Path_40063" data-name="Path 40063" d="M40.818,68.314a1.309,1.309,0,1,0,1.52-2.131,22.659,22.659,0,1,1,26.277,0,1.309,1.309,0,0,0,1.517,2.131,25.276,25.276,0,1,0-29.314,0Z" transform="translate(0)" fill="#7c40d5"/>
      <path id="Path_40064" data-name="Path 40064" d="M79.442,87.125H65.473V70.248A10,10,0,0,0,60.4,61.56a10,10,0,1,0-9.853,0,10,10,0,0,0-5.07,8.687V87.125H31.511a1.309,1.309,0,1,0,0,2.617H79.445a1.309,1.309,0,1,0,0-2.617ZM48.1,52.875a7.379,7.379,0,1,1,7.378,7.376A7.379,7.379,0,0,1,48.1,52.875Zm0,17.375a7.379,7.379,0,0,1,14.759,0V87.128H48.1Z" transform="translate(-0.001 -5.149)" fill="#7c40d5"/>
    </g>
  </g>
</svg>
