<svg xmlns="http://www.w3.org/2000/svg" width="117" height="117" viewBox="0 0 117 117">
  <g id="Group_33902" data-name="Group 33902" transform="translate(-1144 -2941)">
    <circle id="Ellipse_2179" data-name="Ellipse 2179" cx="58.5" cy="58.5" r="58.5" transform="translate(1144 2941)" fill="#f8f8ff"/>
    <g id="atom" transform="translate(1162.305 2961.25)">
      <path id="Path_40088" data-name="Path 40088" d="M58.024,50.25A7.774,7.774,0,1,0,65.8,58.024,7.774,7.774,0,0,0,58.024,50.25Zm0,13.569a5.795,5.795,0,1,1,5.795-5.795,5.795,5.795,0,0,1-5.795,5.795Z" transform="translate(-18.062 -19.776)" fill="#7c40d5"/>
      <path id="Path_40089" data-name="Path 40089" d="M67.941,62.25a.989.989,0,0,0-.989.989,2.416,2.416,0,0,1-1.2,2.078.989.989,0,0,0,1,1.71,4.4,4.4,0,0,0,2.18-3.788A.989.989,0,0,0,67.941,62.25Z" transform="translate(-24.586 -24.992)" fill="#7c40d5"/>
      <path id="Path_40090" data-name="Path 40090" d="M65.533,35.935a4.38,4.38,0,0,0,4.2-7.334c-.072-.071-.148-.136-.226-.2a8.762,8.762,0,0,0-.539-6.9c-2.375-4.116-8.61-5.464-17.165-3.761C48.994,9.477,44.707,4.75,39.962,4.75S30.931,9.476,28.116,17.739c-8.557-1.7-14.791-.356-17.165,3.76a8.768,8.768,0,0,0-.576,6.75,4.382,4.382,0,0,0,3.98,7.641c.587.781,1.23,1.571,1.922,2.362-5.749,6.56-7.7,12.634-5.327,16.745,1.7,2.955,5.394,4.488,10.506,4.488a34.577,34.577,0,0,0,6.658-.73c2.814,8.263,7.1,12.991,11.847,12.991a8.812,8.812,0,0,0,6.158-2.9,4.379,4.379,0,0,0,4.855-7.107c-.071-.072-.148-.137-.223-.2.37-.876.725-1.809,1.059-2.785a34.5,34.5,0,0,0,6.655.73c5.111,0,8.8-1.533,10.506-4.488,2.375-4.111.422-10.185-5.326-16.745C64.315,37.49,64.945,36.715,65.533,35.935Zm2.8-2.536a2.406,2.406,0,0,1-3.4,0h0a2.4,2.4,0,1,1,3.4,0ZM67.259,22.488a6.653,6.653,0,0,1,.457,4.975A4.379,4.379,0,0,0,63.538,34.8c.071.072.148.136.223.2q-.689.9-1.454,1.78a59.783,59.783,0,0,0-7.894-6.875,60.516,60.516,0,0,0-2-10.272c7.456-1.442,12.97-.4,14.848,2.853ZM50.472,56.442A56.679,56.679,0,0,1,42.4,53.818c1.688-.816,3.368-1.7,5.018-2.654s3.271-1.974,4.806-3.023a56.649,56.649,0,0,1-1.751,8.3Zm-21.019,0a56.638,56.638,0,0,1-1.753-8.3c1.539,1.049,3.147,2.063,4.808,3.023s3.327,1.84,5.017,2.654a56.685,56.685,0,0,1-8.073,2.624Zm0-36.389a56.657,56.657,0,0,1,8.072,2.624c-1.688.816-3.368,1.7-5.018,2.657s-3.271,1.974-4.808,3.023a56.621,56.621,0,0,1,1.754-8.3ZM25.263,43.92a55.853,55.853,0,0,1-6.311-5.673,55.919,55.919,0,0,1,6.311-5.673c-.14,1.866-.214,3.767-.214,5.673S25.122,42.052,25.263,43.92ZM33.5,49.45c-2.142-1.236-4.191-2.564-6.11-3.945-.236-2.369-.361-4.806-.361-7.258s.124-4.888.361-7.258c1.917-1.379,3.967-2.708,6.11-3.945,2.12-1.225,4.293-2.339,6.464-3.323,2.173.985,4.345,2.1,6.465,3.323,2.142,1.236,4.191,2.564,6.11,3.945.236,2.369.361,4.806.361,7.258s-.124,4.888-.361,7.258c-1.917,1.379-3.967,2.708-6.11,3.945-2.12,1.225-4.293,2.339-6.464,3.323-2.174-.985-4.346-2.1-6.467-3.323Zm16.974-29.4a56.636,56.636,0,0,1,1.753,8.3c-1.539-1.049-3.147-2.063-4.806-3.023s-3.331-1.837-5.021-2.652a56.685,56.685,0,0,1,8.073-2.624Zm4.189,12.524a55.853,55.853,0,0,1,6.311,5.673,55.917,55.917,0,0,1-6.311,5.673c.14-1.866.214-3.767.214-5.673S54.8,34.443,54.662,32.575ZM39.962,6.729c3.753,0,7.414,4.257,9.9,11.434a60.679,60.679,0,0,0-9.9,3.392,60.633,60.633,0,0,0-9.9-3.392C32.549,10.985,36.209,6.729,39.962,6.729ZM11.371,33.4h0a2.406,2.406,0,1,1,1.7.7,2.406,2.406,0,0,1-1.7-.7Zm4.8-4.8A4.382,4.382,0,0,0,12.2,27.409a6.567,6.567,0,0,1,.466-4.919c1.879-3.257,7.393-4.3,14.849-2.854a60.555,60.555,0,0,0-2,10.273,59.74,59.74,0,0,0-7.894,6.869q-.826-.953-1.543-1.9c.031-.029.064-.057.095-.086a4.386,4.386,0,0,0,0-6.2ZM12.663,54.007c-1.874-3.252-.018-8.549,4.957-14.289a59.766,59.766,0,0,0,7.892,6.872,60.515,60.515,0,0,0,2,10.272c-7.457,1.441-12.97.4-14.849-2.854ZM49.576,66.538a2.407,2.407,0,1,1,.7-1.7,2.407,2.407,0,0,1-.7,1.7Zm-1.7-6.079a4.38,4.38,0,0,0-3.355,7.2,6.645,6.645,0,0,1-4.56,2.112c-3.753,0-7.414-4.257-9.9-11.434a60.68,60.68,0,0,0,9.9-3.392,60.641,60.641,0,0,0,9.9,3.392c-.277.794-.565,1.555-.867,2.276a4.395,4.395,0,0,0-1.125-.149Zm19.383-6.452c-1.879,3.256-7.393,4.3-14.849,2.854a60.555,60.555,0,0,0,2-10.273A59.738,59.738,0,0,0,62.3,39.717c4.975,5.741,6.83,11.038,4.955,14.289Z" fill="#7c40d5"/>
    </g>
  </g>
</svg>
