<svg xmlns="http://www.w3.org/2000/svg" width="117" height="117" viewBox="0 0 117 117">
  <g id="Group_33905" data-name="Group 33905" transform="translate(-1371 -3168)">
    <circle id="Ellipse_2179" data-name="Ellipse 2179" cx="58.5" cy="58.5" r="58.5" transform="translate(1371 3168)" fill="#f8f8ff"/>
    <g id="surface1" transform="translate(1396 3193)">
      <path id="Path_40134" data-name="Path 40134" d="M63.978,10.992H50.25a.981.981,0,0,0,0,1.963H63.978a1.06,1.06,0,0,1,1.059,1.059V51.808a1.06,1.06,0,0,1-1.059,1.059H3.022a1.06,1.06,0,0,1-1.059-1.059V14.014a1.06,1.06,0,0,1,1.059-1.059H24.585v1.963H4.907a.981.981,0,0,0-.981.981V41.832a.981.981,0,0,0,1.963,0V16.881h18.7v5.265l-4.2,2.007a.988.988,0,0,0-.558.886V41.045a.982.982,0,0,0,.558.886L33.077,48a1,1,0,0,0,.846,0l7.136-3.41a.982.982,0,1,0-.847-1.771l-5.731,2.738V31.722L45.212,26.6V40.426l-1.458.7a.981.981,0,1,0,.846,1.771l2.017-.963a.982.982,0,0,0,.558-.886V25.039a.987.987,0,0,0-.558-.886l-4.2-2.007V16.881h18.7V48.941H5.889V46.019a.981.981,0,0,0-1.963,0v3.9a.981.981,0,0,0,.981.981H62.093a.981.981,0,0,0,.981-.981V15.9a.981.981,0,0,0-.981-.981H42.415V12.955h3.648a.981.981,0,0,0,0-1.963H42.415V9.029h8.8a.981.981,0,0,0,.981-.981V5.72a2.944,2.944,0,1,0-1.963,0V7.066h-8.8a.981.981,0,0,0-.981.981v2.944h-5.97V5.72a2.944,2.944,0,1,0-1.963,0v5.272h-5.97V8.048a.981.981,0,0,0-.981-.981h-8.8V5.72a2.944,2.944,0,1,0-1.963,0V8.048a.981.981,0,0,0,.981.981h8.8v1.963H3.022A3.025,3.025,0,0,0,0,14.014V51.808A3.025,3.025,0,0,0,3.022,54.83H24.3a9.354,9.354,0,0,1-3.511,6.281h-4.17a2.944,2.944,0,0,0,0,5.889H50.381a2.944,2.944,0,0,0,0-5.889H46.213A9.446,9.446,0,0,1,42.7,54.83H63.978A3.025,3.025,0,0,0,67,51.808V14.014A3.025,3.025,0,0,0,63.978,10.992ZM51.215,1.963a.981.981,0,1,1-.981.981A.982.982,0,0,1,51.215,1.963Zm-17.715,0a.981.981,0,1,1-.981.981A.982.982,0,0,1,33.5,1.963Zm-17.715,0a.981.981,0,1,1-.981.981A.982.982,0,0,1,15.785,1.963ZM26.548,16.881h5.97v1.475l-5.97,2.853Zm17.369,8.158L33.5,30.015,23.083,25.039,33.5,20.062ZM21.788,26.6l10.73,5.127V45.553l-10.73-5.126Zm18.664-5.387-5.97-2.853V16.881h5.97Zm0-8.253v1.963h-5.97V12.955Zm-7.933,0v1.963h-5.97V12.955Zm18.844,51.1a.982.982,0,0,1-.981.981H16.619a.981.981,0,0,1,0-1.963H50.381A.982.982,0,0,1,51.362,64.056ZM43.4,61.111H23.6a11.069,11.069,0,0,0,2.672-6.281H40.726A11.069,11.069,0,0,0,43.4,61.111Zm0,0" fill="#7c40d5"/>
    </g>
  </g>
</svg>
