<svg xmlns="http://www.w3.org/2000/svg" width="33.333" height="31.941" viewBox="0 0 33.333 31.941">
  <g id="star" transform="translate(0 -10.684)">
    <g id="Group_33743" data-name="Group 33743" transform="translate(0.652 11.335)">
      <g id="Group_33739" data-name="Group 33739" transform="translate(0 0)">
        <path id="Path_40179" data-name="Path 40179" d="M26.025,47.744l-8.113,3.438A1.769,1.769,0,0,1,15.46,49.4l.762-8.78-5.776-6.655a1.769,1.769,0,0,1,.937-2.883l8.584-1.988,4.544-7.551a1.769,1.769,0,0,1,3.031,0l4.544,7.551,8.584,1.988a1.769,1.769,0,0,1,.937,2.883L35.829,40.62l.762,8.78a1.769,1.769,0,0,1-2.452,1.782Z" transform="translate(-10.011 -20.685)" fill="#fff"/>
      </g>
      <g id="Group_33742" data-name="Group 33742" transform="translate(11.367 7.349)">
        <g id="Group_33740" data-name="Group 33740" transform="translate(1.103)">
          <ellipse id="Ellipse_2240" data-name="Ellipse 2240" cx="3.545" cy="3.545" rx="3.545" ry="3.545" fill="#e8dcf9"/>
        </g>
        <g id="Group_33741" data-name="Group 33741" transform="translate(0 7.09)">
          <path id="Path_40180" data-name="Path 40180" d="M193.9,246.869h-9.3v-1.116a3.277,3.277,0,0,1,3.277-3.277h2.741a3.277,3.277,0,0,1,3.277,3.277Z" transform="translate(-184.607 -242.476)" fill="#e8dcf9"/>
        </g>
      </g>
    </g>
    <g id="Group_33749" data-name="Group 33749" transform="translate(0 10.684)">
      <g id="Group_33744" data-name="Group 33744" transform="translate(10.417 21.413)">
        <path id="Path_40181" data-name="Path 40181" d="M163.311,340.9h-2.656a.651.651,0,1,1,0-1.3h2.656a.651.651,0,0,1,0,1.3Z" transform="translate(-160.004 -339.6)" fill="#9e60dd"/>
      </g>
      <g id="Group_33745" data-name="Group 33745" transform="translate(18.958 21.413)">
        <path id="Path_40182" data-name="Path 40182" d="M294.511,340.9h-2.656a.651.651,0,1,1,0-1.3h2.656a.651.651,0,1,1,0,1.3Z" transform="translate(-291.204 -339.6)" fill="#9e60dd"/>
      </g>
      <g id="Group_33746" data-name="Group 33746" transform="translate(16.005 21.415)">
        <path id="Path_40183" data-name="Path 40183" d="M246.485,340.93a.651.651,0,1,1,.638-.524A.657.657,0,0,1,246.485,340.93Z" transform="translate(-245.835 -339.63)" fill="#9e60dd"/>
      </g>
      <g id="Group_33748" data-name="Group 33748" transform="translate(12.237 23.978)">
        <g id="Group_33747" data-name="Group 33747">
          <path id="Path_40184" data-name="Path 40184" d="M196.166,380.3h-7.557a.651.651,0,1,1,0-1.3h7.557a.651.651,0,1,1,0,1.3Z" transform="translate(-187.958 -378.999)" fill="#9e60dd"/>
        </g>
      </g>
      <path id="Path_40185" data-name="Path 40185" d="M182.675,130.917a4.2,4.2,0,1,0-5.536,0,3.935,3.935,0,0,0-2.531,3.671V135.7a.651.651,0,0,0,.651.651h9.3a.651.651,0,0,0,.651-.651v-1.116A3.935,3.935,0,0,0,182.675,130.917Zm-2.768-6.045a2.894,2.894,0,1,1-2.894,2.894A2.9,2.9,0,0,1,179.907,124.872Zm4,10.181H175.91v-.465a2.629,2.629,0,0,1,2.626-2.626h2.741a2.629,2.629,0,0,1,2.626,2.626v.465Z" transform="translate(-163.24 -116.221)" fill="#9e60dd"/>
      <path id="Path_40186" data-name="Path 40186" d="M7.859,42.626a2.425,2.425,0,0,1-2.406-2.632l.738-8.505-5.6-6.447A2.42,2.42,0,0,1,1.876,21.1l8.316-1.926,4.4-7.315a2.42,2.42,0,0,1,4.147,0l4.4,7.315L31.457,21.1a2.42,2.42,0,0,1,1.281,3.944l-5.6,6.447.738,8.505a2.42,2.42,0,0,1-3.355,2.438L16.667,39.1l-7.859,3.33a2.429,2.429,0,0,1-.949.194Zm8.808-30.64a1.109,1.109,0,0,0-.958.542l-4.544,7.551a.651.651,0,0,1-.411.3L2.17,22.366a1.118,1.118,0,0,0-.592,1.822l5.776,6.655a.651.651,0,0,1,.157.483l-.762,8.78A1.118,1.118,0,0,0,8.3,41.232l8.113-3.438a.651.651,0,0,1,.508,0l8.113,3.438a1.118,1.118,0,0,0,1.55-1.126l-.762-8.78a.651.651,0,0,1,.157-.483l5.776-6.655a1.118,1.118,0,0,0-.592-1.822l-8.584-1.988a.651.651,0,0,1-.411-.3l-4.544-7.551a1.109,1.109,0,0,0-.958-.542Z" transform="translate(0 -10.684)" fill="#caa2f2"/>
    </g>
  </g>
</svg>
