<svg xmlns="http://www.w3.org/2000/svg" width="117" height="117" viewBox="0 0 117 117">
  <g id="Group_33895" data-name="Group 33895" transform="translate(-400 -2714)">
    <circle id="Ellipse_2179" data-name="Ellipse 2179" cx="58.5" cy="58.5" r="58.5" transform="translate(400 2714)" fill="#f8f8ff"/>
    <g id="camera" transform="translate(425 2738.999)">
      <path id="Path_40047" data-name="Path 40047" d="M253.583,47.965a5.583,5.583,0,1,0,5.583,5.583A5.584,5.584,0,0,0,253.583,47.965Zm0,8.933a3.35,3.35,0,1,1,3.35-3.35A3.35,3.35,0,0,1,253.583,56.9Zm0,0" transform="translate(-213.383 -41.269)" fill="#7c40d5"/>
      <path id="Path_40048" data-name="Path 40048" d="M116.467,106.2a2.233,2.233,0,1,1-2.233-2.233A2.233,2.233,0,0,1,116.467,106.2Zm0,0" transform="translate(-96.367 -89.453)" fill="#7c40d5"/>
      <path id="Path_40049" data-name="Path 40049" d="M64.767,16.746v1.636L53.6,25.827v-3.5A3.35,3.35,0,0,0,50.483,19,12.283,12.283,0,1,0,29.9,18.979H25.354a7.817,7.817,0,1,0-14.969,0H10.05a3.35,3.35,0,0,0-3.35,3.35v3.35H3.35A3.35,3.35,0,0,0,0,29.029V33.5a3.35,3.35,0,0,0,3.35,3.35H6.7V40.2a3.35,3.35,0,0,0,3.35,3.35H24.567v1.117A3.343,3.343,0,0,0,27.5,47.97L11.167,64.3V67H13.4V65.225L29.033,49.591V64.762h2.233V49.591L46.9,65.225V67h2.233V64.3L32.8,47.97a3.343,3.343,0,0,0,2.93-3.307V43.546H50.25A3.35,3.35,0,0,0,53.6,40.2V36.557L64.767,43.07v1.592H67V16.746ZM6.7,34.612H3.35A1.117,1.117,0,0,1,2.233,33.5V29.029A1.117,1.117,0,0,1,3.35,27.912H6.7ZM40.2,2.229a10.05,10.05,0,1,1-10.05,10.05A10.05,10.05,0,0,1,40.2,2.229ZM17.867,11.162a5.583,5.583,0,1,1-5.583,5.583A5.584,5.584,0,0,1,17.867,11.162ZM33.5,44.662a1.117,1.117,0,0,1-1.117,1.117H27.917A1.117,1.117,0,0,1,26.8,44.662V43.546h6.7ZM51.367,40.2a1.117,1.117,0,0,1-1.117,1.117H10.05A1.117,1.117,0,0,1,8.933,40.2V22.329a1.117,1.117,0,0,1,1.117-1.117h1.412a7.8,7.8,0,0,0,12.81,0h7.5a12.282,12.282,0,0,0,16.861,0H50.25a1.117,1.117,0,0,1,1.117,1.117Zm13.4.29L53.6,33.972V28.51l11.167-7.445Zm0,0" fill="#7c40d5"/>
      <path id="Path_40050" data-name="Path 40050" d="M95.633,183.965H80v6.7H95.633ZM93.4,188.432H82.233V186.2H93.4Zm0,0" transform="translate(-68.833 -158.286)" fill="#7c40d5"/>
      <path id="Path_40051" data-name="Path 40051" d="M80,239.965h4.467V242.2H80Zm0,0" transform="translate(-68.833 -206.469)" fill="#7c40d5"/>
      <path id="Path_40052" data-name="Path 40052" d="M128,239.965h8.933V242.2H128Zm0,0" transform="translate(-110.133 -206.469)" fill="#7c40d5"/>
    </g>
  </g>
</svg>
