<svg xmlns="http://www.w3.org/2000/svg" width="117" height="117" viewBox="0 0 117 117">
  <g id="Group_33896" data-name="Group 33896" transform="translate(-400 -3168)">
    <circle id="Ellipse_2179" data-name="Ellipse 2179" cx="58.5" cy="58.5" r="58.5" transform="translate(400 3168)" fill="#f8f8ff"/>
    <g id="outline" transform="translate(389.012 3177)">
      <path id="Path_40099" data-name="Path 40099" d="M129.117,106.233h24.565a1.117,1.117,0,1,0,0-2.233H129.117a1.117,1.117,0,0,0,0,2.233Z" transform="translate(-75.728 -75.718)" fill="#7c40d5"/>
      <path id="Path_40100" data-name="Path 40100" d="M129.117,154.233h24.565a1.117,1.117,0,1,0,0-2.233H129.117a1.117,1.117,0,0,0,0,2.233Z" transform="translate(-75.728 -117.018)" fill="#7c40d5"/>
      <path id="Path_40101" data-name="Path 40101" d="M129.117,202.233h24.565a1.117,1.117,0,1,0,0-2.233H129.117a1.117,1.117,0,0,0,0,2.233Z" transform="translate(-75.728 -158.319)" fill="#7c40d5"/>
      <path id="Path_40102" data-name="Path 40102" d="M129.117,250.233h24.565a1.117,1.117,0,1,0,0-2.233H129.117a1.117,1.117,0,0,0,0,2.233Z" transform="translate(-75.728 -199.619)" fill="#7c40d5"/>
      <path id="Path_40103" data-name="Path 40103" d="M129.117,298.233h8.933a1.117,1.117,0,1,0,0-2.233h-8.933a1.117,1.117,0,0,0,0,2.233Z" transform="translate(-75.728 -240.92)" fill="#7c40d5"/>
      <path id="Path_40104" data-name="Path 40104" d="M97.512,42.381a3.353,3.353,0,0,0-4.584,1.2l-2.693,4.594V20.466a1.117,1.117,0,0,0-1.117-1.117h-8.47a43.783,43.783,0,0,0-3.489-3.3A1.113,1.113,0,0,0,76.837,16H44.456a1.117,1.117,0,0,0-1.117,1.117v3.491a4.466,4.466,0,0,0,0,8.65v2.516a4.466,4.466,0,0,0,0,8.65v2.516a4.466,4.466,0,0,0,0,8.65v1.4a4.466,4.466,0,0,0,0,8.65v6.841A1.117,1.117,0,0,0,44.456,69.6h1.117v3.35a1.117,1.117,0,0,0,1.117,1.117H75.063L74.3,75.368a1.108,1.108,0,0,0-.137.38c0,.006,0,.012,0,.018l0,.018v0l-.893,5.923A1.117,1.117,0,0,0,75.05,82.76L79.8,79.073c.3-.236.453-.381.429-.575l2.6-4.436h6.291a1.117,1.117,0,0,0,1.117-1.117V61.422l8.472-14.457a3.354,3.354,0,0,0-1.2-4.584Zm-1.976,1.81a1.117,1.117,0,0,1,1.245,1.645l-.565.963L94.291,45.67l.565-.963a1.109,1.109,0,0,1,.681-.516ZM78.716,76.663,76.79,75.534,91.468,50.487l1.926,1.129Zm-.762-56.851,4,4h-4ZM92.6,48.56l.564-.963,1.927,1.129-.565.963ZM88,21.583V51.731a1.122,1.122,0,0,0,.021.216L85.77,55.793V24.933a1.113,1.113,0,0,0-.326-.788h0l-2.56-2.56Zm-42.43-3.35H75.72v6.7a1.117,1.117,0,0,0,1.117,1.117h6.7V59.6l-4.547,7.759H45.572V61.639a4.463,4.463,0,0,0,3.209-3.209,1.117,1.117,0,0,0-2.163-.557,2.226,2.226,0,0,1-1.046,1.374V51.589a4.463,4.463,0,0,0,3.209-3.209,1.117,1.117,0,1,0-2.163-.557A2.226,2.226,0,0,1,45.572,49.2V40.424a4.463,4.463,0,0,0,3.209-3.209,1.117,1.117,0,0,0-2.163-.557,2.226,2.226,0,0,1-1.046,1.374V29.258a4.463,4.463,0,0,0,3.209-3.209,1.117,1.117,0,1,0-2.163-.557,2.226,2.226,0,0,1-1.046,1.374Zm-3.35,6.7A2.233,2.233,0,0,1,43.339,23v3.862A2.233,2.233,0,0,1,42.223,24.933Zm0,11.166a2.233,2.233,0,0,1,1.117-1.931V38.03A2.233,2.233,0,0,1,42.223,36.1Zm0,11.166a2.233,2.233,0,0,1,1.117-1.931V49.2A2.233,2.233,0,0,1,42.223,47.264Zm0,10.049a2.233,2.233,0,0,1,1.117-1.931v3.862A2.233,2.233,0,0,1,42.223,57.314Zm5.583,14.516V69.6H77.681l-1.309,2.233Zm28.314,5.9,1.008.591-1.242.964ZM88,71.829H84.137L88,65.233Z" fill="#7c40d5"/>
    </g>
  </g>
</svg>
